<svg xmlns="http://www.w3.org/2000/svg" width="10" height="12" viewBox="0 0 10 12" fill="none">
    <path fill-rule="evenodd" clip-rule="evenodd" d="M6.81494 10.3791C6.25887 10.9777 5.6113 11.5138 4.88414 11.9474C4.79461 12.0119 4.67325 12.0197 4.57378 11.9572C3.49946 11.2863 2.59723 10.4806 1.88797 9.60464C0.909148 8.39956 0.293402 7.06362 0.0825164 5.7765C-0.132348 4.47181 0.06859 3.21595 0.730094 2.19544C0.990717 1.79211 1.32396 1.42493 1.72981 1.10754C2.66288 0.378047 3.72825 -0.00769616 4.79063 0.000116364C5.81323 0.00792889 6.82289 0.381954 7.69528 1.16418C8.00166 1.43762 8.2593 1.7511 8.47019 2.09094C9.18143 3.24134 9.33462 4.70814 9.02227 6.19447C8.7139 7.66323 7.94795 9.15542 6.81494 10.3761V10.3791ZM4.58771 2.32044C5.84904 2.32044 6.87064 3.32435 6.87064 4.56166C6.87064 5.79994 5.84805 6.80287 4.58771 6.80287C3.32637 6.80287 2.30477 5.79994 2.30477 4.56166C2.30378 3.32337 3.32637 2.32044 4.58771 2.32044Z" fill="#78797E"/>
</svg>